<?xml version="1.0" standalone="no"?>
<svg xmlns:xlink="http://www.w3.org/1999/xlink" id="wave" style="transform:rotate(180deg); transition: 0.3s" viewBox="0 0 1440 490" version="1.1" xmlns="http://www.w3.org/2000/svg"><defs><linearGradient id="sw-gradient-0" x1="0" x2="0" y1="1" y2="0"><stop stop-color="rgba(65.344, 73.464, 105.159, 1)" offset="0%"/><stop stop-color="rgba(18.903, 67.083, 196.23, 1)" offset="100%"/></linearGradient></defs><path style="transform:translate(0, 0px); opacity:1" fill="url(#sw-gradient-0)" d="M0,196L60,163.3C120,131,240,65,360,40.8C480,16,600,33,720,89.8C840,147,960,245,1080,245C1200,245,1320,147,1440,163.3C1560,180,1680,310,1800,375.7C1920,441,2040,441,2160,400.2C2280,359,2400,278,2520,261.3C2640,245,2760,294,2880,269.5C3000,245,3120,147,3240,89.8C3360,33,3480,16,3600,57.2C3720,98,3840,196,3960,220.5C4080,245,4200,196,4320,212.3C4440,229,4560,310,4680,351.2C4800,392,4920,392,5040,334.8C5160,278,5280,163,5400,130.7C5520,98,5640,147,5760,179.7C5880,212,6000,229,6120,245C6240,261,6360,278,6480,236.8C6600,196,6720,98,6840,106.2C6960,114,7080,229,7200,285.8C7320,343,7440,343,7560,318.5C7680,294,7800,245,7920,228.7C8040,212,8160,229,8280,204.2C8400,180,8520,114,8580,81.7L8640,49L8640,490L8580,490C8520,490,8400,490,8280,490C8160,490,8040,490,7920,490C7800,490,7680,490,7560,490C7440,490,7320,490,7200,490C7080,490,6960,490,6840,490C6720,490,6600,490,6480,490C6360,490,6240,490,6120,490C6000,490,5880,490,5760,490C5640,490,5520,490,5400,490C5280,490,5160,490,5040,490C4920,490,4800,490,4680,490C4560,490,4440,490,4320,490C4200,490,4080,490,3960,490C3840,490,3720,490,3600,490C3480,490,3360,490,3240,490C3120,490,3000,490,2880,490C2760,490,2640,490,2520,490C2400,490,2280,490,2160,490C2040,490,1920,490,1800,490C1680,490,1560,490,1440,490C1320,490,1200,490,1080,490C960,490,840,490,720,490C600,490,480,490,360,490C240,490,120,490,60,490L0,490Z"/></svg>