<?xml version="1.0" standalone="no"?>
<svg xmlns:xlink="http://www.w3.org/1999/xlink" id="wave" style="transform:rotate(180deg); transition: 0.3s" viewBox="0 0 1440 490" version="1.1" xmlns="http://www.w3.org/2000/svg"><defs><linearGradient id="sw-gradient-0" x1="0" x2="0" y1="1" y2="0"><stop stop-color="rgba(36, 211, 206, 1)" offset="0%"/><stop stop-color="rgba(255, 255, 255, 1)" offset="100%"/></linearGradient></defs><path style="transform:translate(0, 0px); opacity:1" fill="url(#sw-gradient-0)" d="M0,0L40,73.5C80,147,160,294,240,310.3C320,327,400,212,480,196C560,180,640,261,720,310.3C800,359,880,376,960,359.3C1040,343,1120,294,1200,228.7C1280,163,1360,82,1440,40.8C1520,0,1600,0,1680,73.5C1760,147,1840,294,1920,302.2C2000,310,2080,180,2160,130.7C2240,82,2320,114,2400,106.2C2480,98,2560,49,2640,81.7C2720,114,2800,229,2880,261.3C2960,294,3040,245,3120,196C3200,147,3280,98,3360,138.8C3440,180,3520,310,3600,318.5C3680,327,3760,212,3840,212.3C3920,212,4000,327,4080,334.8C4160,343,4240,245,4320,187.8C4400,131,4480,114,4560,122.5C4640,131,4720,163,4800,171.5C4880,180,4960,163,5040,130.7C5120,98,5200,49,5280,73.5C5360,98,5440,196,5520,253.2C5600,310,5680,327,5720,334.8L5760,343L5760,490L5720,490C5680,490,5600,490,5520,490C5440,490,5360,490,5280,490C5200,490,5120,490,5040,490C4960,490,4880,490,4800,490C4720,490,4640,490,4560,490C4480,490,4400,490,4320,490C4240,490,4160,490,4080,490C4000,490,3920,490,3840,490C3760,490,3680,490,3600,490C3520,490,3440,490,3360,490C3280,490,3200,490,3120,490C3040,490,2960,490,2880,490C2800,490,2720,490,2640,490C2560,490,2480,490,2400,490C2320,490,2240,490,2160,490C2080,490,2000,490,1920,490C1840,490,1760,490,1680,490C1600,490,1520,490,1440,490C1360,490,1280,490,1200,490C1120,490,1040,490,960,490C880,490,800,490,720,490C640,490,560,490,480,490C400,490,320,490,240,490C160,490,80,490,40,490L0,490Z"/><defs><linearGradient id="sw-gradient-1" x1="0" x2="0" y1="1" y2="0"><stop stop-color="rgba(36, 211, 206, 1)" offset="0%"/><stop stop-color="rgba(255, 255, 255, 1)" offset="100%"/></linearGradient></defs><path style="transform:translate(0, 50px); opacity:0.9" fill="url(#sw-gradient-1)" d="M0,294L40,277.7C80,261,160,229,240,187.8C320,147,400,98,480,65.3C560,33,640,16,720,8.2C800,0,880,0,960,32.7C1040,65,1120,131,1200,138.8C1280,147,1360,98,1440,138.8C1520,180,1600,310,1680,334.8C1760,359,1840,278,1920,269.5C2000,261,2080,327,2160,310.3C2240,294,2320,196,2400,130.7C2480,65,2560,33,2640,65.3C2720,98,2800,196,2880,236.8C2960,278,3040,261,3120,277.7C3200,294,3280,343,3360,302.2C3440,261,3520,131,3600,89.8C3680,49,3760,98,3840,106.2C3920,114,4000,82,4080,130.7C4160,180,4240,310,4320,375.7C4400,441,4480,441,4560,383.8C4640,327,4720,212,4800,212.3C4880,212,4960,327,5040,343C5120,359,5200,278,5280,204.2C5360,131,5440,65,5520,32.7C5600,0,5680,0,5720,0L5760,0L5760,490L5720,490C5680,490,5600,490,5520,490C5440,490,5360,490,5280,490C5200,490,5120,490,5040,490C4960,490,4880,490,4800,490C4720,490,4640,490,4560,490C4480,490,4400,490,4320,490C4240,490,4160,490,4080,490C4000,490,3920,490,3840,490C3760,490,3680,490,3600,490C3520,490,3440,490,3360,490C3280,490,3200,490,3120,490C3040,490,2960,490,2880,490C2800,490,2720,490,2640,490C2560,490,2480,490,2400,490C2320,490,2240,490,2160,490C2080,490,2000,490,1920,490C1840,490,1760,490,1680,490C1600,490,1520,490,1440,490C1360,490,1280,490,1200,490C1120,490,1040,490,960,490C880,490,800,490,720,490C640,490,560,490,480,490C400,490,320,490,240,490C160,490,80,490,40,490L0,490Z"/></svg>